<svg width="75" height="17" viewBox="0 0 75 17" fill="none" xmlns="http://www.w3.org/2000/svg">
<path d="M4.9489 4.0546C4.2713 4.0546 3.75907 4.20383 3.4122 4.5023C3.06533 4.7927 2.8919 5.23233 2.8919 5.8212V6.3415H6.3767V7.9145H2.8919V11H0.9317V5.8333C0.9317 4.7443 1.2705 3.8973 1.9481 3.2923C2.63377 2.6873 3.58967 2.3848 4.8158 2.3848C5.2998 2.3848 5.75557 2.43723 6.1831 2.5421C6.61063 2.6389 6.9817 2.7841 7.2963 2.9777L6.6913 4.5265C6.2073 4.2119 5.6265 4.0546 4.9489 4.0546ZM14.5558 4.4902V11H12.7529V10.2498C12.2851 10.8145 11.6075 11.0968 10.7201 11.0968C10.1071 11.0968 9.55046 10.9597 9.05033 10.6854C8.55826 10.4111 8.17106 10.0199 7.88873 9.5117C7.60639 9.0035 7.46523 8.41463 7.46523 7.7451C7.46523 7.07557 7.60639 6.4867 7.88873 5.9785C8.17106 5.4703 8.55826 5.07907 9.05033 4.8048C9.55046 4.53053 10.1071 4.3934 10.7201 4.3934C11.551 4.3934 12.2004 4.65557 12.6682 5.1799V4.4902H14.5558ZM11.0468 9.548C11.5228 9.548 11.918 9.38667 12.2326 9.064C12.5472 8.73327 12.7045 8.29363 12.7045 7.7451C12.7045 7.19657 12.5472 6.76097 12.2326 6.4383C11.918 6.10757 11.5228 5.9422 11.0468 5.9422C10.5628 5.9422 10.1635 6.10757 9.84893 6.4383C9.53433 6.76097 9.37703 7.19657 9.37703 7.7451C9.37703 8.29363 9.53433 8.73327 9.84893 9.064C10.1635 9.38667 10.5628 9.548 11.0468 9.548ZM18.4935 11.0968C17.9531 11.0968 17.4247 11.0323 16.9084 10.9032C16.3922 10.7661 15.9808 10.5967 15.6742 10.395L16.3034 9.0398C16.5938 9.22533 16.9447 9.3786 17.3561 9.4996C17.7675 9.61253 18.1709 9.669 18.5661 9.669C19.3647 9.669 19.764 9.47137 19.764 9.0761C19.764 8.89057 19.6551 8.75747 19.4373 8.6768C19.2195 8.59613 18.8848 8.52757 18.433 8.4711C17.9006 8.39043 17.461 8.29767 17.1141 8.1928C16.7673 8.08793 16.4648 7.9024 16.2066 7.6362C15.9566 7.37 15.8315 6.99087 15.8315 6.4988C15.8315 6.0874 15.9485 5.7244 16.1824 5.4098C16.4244 5.08713 16.7713 4.83707 17.223 4.6596C17.6828 4.48213 18.2233 4.3934 18.8444 4.3934C19.3042 4.3934 19.76 4.44583 20.2117 4.5507C20.6715 4.6475 21.0507 4.78463 21.3491 4.9621L20.7199 6.3052C20.1472 5.98253 19.522 5.8212 18.8444 5.8212C18.4411 5.8212 18.1386 5.87767 17.9369 5.9906C17.7353 6.10353 17.6344 6.24873 17.6344 6.4262C17.6344 6.62787 17.7433 6.76903 17.9611 6.8497C18.1789 6.93037 18.5258 7.007 19.0017 7.0796C19.5341 7.16833 19.9697 7.26513 20.3085 7.37C20.6473 7.4668 20.9418 7.6483 21.1918 7.9145C21.4419 8.1807 21.5669 8.55177 21.5669 9.0277C21.5669 9.43103 21.4459 9.79 21.2039 10.1046C20.9619 10.4192 20.607 10.6652 20.1391 10.8427C19.6793 11.0121 19.1308 11.0968 18.4935 11.0968ZM26.6883 4.3934C27.4949 4.3934 28.1443 4.6354 28.6364 5.1194C29.1365 5.6034 29.3866 6.32133 29.3866 7.2732V11H27.499V7.5636C27.499 7.04733 27.386 6.66417 27.1602 6.4141C26.9343 6.15597 26.6076 6.0269 26.1801 6.0269C25.7041 6.0269 25.325 6.17613 25.0427 6.4746C24.7603 6.765 24.6192 7.2006 24.6192 7.7814V11H22.7316V2.0218H24.6192V5.1678C24.8692 4.91773 25.1717 4.72817 25.5267 4.5991C25.8816 4.46197 26.2688 4.3934 26.6883 4.3934ZM31.0976 4.4902H32.9852V11H31.0976V4.4902ZM32.0414 3.5827C31.6945 3.5827 31.4122 3.48187 31.1944 3.2802C30.9766 3.07853 30.8677 2.82847 30.8677 2.53C30.8677 2.23153 30.9766 1.98147 31.1944 1.7798C31.4122 1.57813 31.6945 1.4773 32.0414 1.4773C32.3882 1.4773 32.6706 1.5741 32.8884 1.7677C33.1062 1.9613 33.2151 2.2033 33.2151 2.4937C33.2151 2.8083 33.1062 3.07047 32.8884 3.2802C32.6706 3.48187 32.3882 3.5827 32.0414 3.5827ZM37.8346 11.0968C37.149 11.0968 36.5319 10.9556 35.9833 10.6733C35.4429 10.3829 35.0194 9.9836 34.7128 9.4754C34.4063 8.9672 34.253 8.39043 34.253 7.7451C34.253 7.09977 34.4063 6.523 34.7128 6.0148C35.0194 5.5066 35.4429 5.11133 35.9833 4.829C36.5319 4.5386 37.149 4.3934 37.8346 4.3934C38.5203 4.3934 39.1334 4.5386 39.6738 4.829C40.2143 5.11133 40.6378 5.5066 40.9443 6.0148C41.2509 6.523 41.4041 7.09977 41.4041 7.7451C41.4041 8.39043 41.2509 8.9672 40.9443 9.4754C40.6378 9.9836 40.2143 10.3829 39.6738 10.6733C39.1334 10.9556 38.5203 11.0968 37.8346 11.0968ZM37.8346 9.548C38.3186 9.548 38.7139 9.38667 39.0204 9.064C39.335 8.73327 39.4923 8.29363 39.4923 7.7451C39.4923 7.19657 39.335 6.76097 39.0204 6.4383C38.7139 6.10757 38.3186 5.9422 37.8346 5.9422C37.3506 5.9422 36.9513 6.10757 36.6367 6.4383C36.3221 6.76097 36.1648 7.19657 36.1648 7.7451C36.1648 8.29363 36.3221 8.73327 36.6367 9.064C36.9513 9.38667 37.3506 9.548 37.8346 9.548ZM46.6225 4.3934C47.4292 4.3934 48.0786 4.6354 48.5706 5.1194C49.0708 5.6034 49.3208 6.32133 49.3208 7.2732V11H47.4332V7.5636C47.4332 7.04733 47.3203 6.66417 47.0944 6.4141C46.8686 6.15597 46.5419 6.0269 46.1143 6.0269C45.6384 6.0269 45.2593 6.17613 44.9769 6.4746C44.6946 6.765 44.5534 7.2006 44.5534 7.7814V11H42.6658V4.4902H44.4687V5.2525C44.7188 4.97823 45.0294 4.7685 45.4004 4.6233C45.7715 4.47003 46.1789 4.3934 46.6225 4.3934ZM67.8703 4.4902V11H66.0795V10.2256C65.8295 10.5079 65.531 10.7257 65.1841 10.879C64.8373 11.0242 64.4622 11.0968 64.0588 11.0968C63.2038 11.0968 62.5262 10.8508 62.026 10.3587C61.5259 9.86663 61.2758 9.1366 61.2758 8.1686V4.4902H63.1634V7.8903C63.1634 8.93897 63.6031 9.4633 64.4823 9.4633C64.9341 9.4633 65.2971 9.3181 65.5713 9.0277C65.8456 8.72923 65.9827 8.2896 65.9827 7.7088V4.4902H67.8703ZM71.8091 11.0968C71.2687 11.0968 70.7403 11.0323 70.224 10.9032C69.7078 10.7661 69.2964 10.5967 68.9898 10.395L69.619 9.0398C69.9094 9.22533 70.2603 9.3786 70.6717 9.4996C71.0831 9.61253 71.4865 9.669 71.8817 9.669C72.6803 9.669 73.0796 9.47137 73.0796 9.0761C73.0796 8.89057 72.9707 8.75747 72.7529 8.6768C72.5351 8.59613 72.2004 8.52757 71.7486 8.4711C71.2162 8.39043 70.7766 8.29767 70.4297 8.1928C70.0829 8.08793 69.7804 7.9024 69.5222 7.6362C69.2722 7.37 69.1471 6.99087 69.1471 6.4988C69.1471 6.0874 69.2641 5.7244 69.498 5.4098C69.74 5.08713 70.0869 4.83707 70.5386 4.6596C70.9984 4.48213 71.5389 4.3934 72.16 4.3934C72.6198 4.3934 73.0756 4.44583 73.5273 4.5507C73.9871 4.6475 74.3663 4.78463 74.6647 4.9621L74.0355 6.3052C73.4628 5.98253 72.8376 5.8212 72.16 5.8212C71.7567 5.8212 71.4542 5.87767 71.2525 5.9906C71.0509 6.10353 70.95 6.24873 70.95 6.4262C70.95 6.62787 71.0589 6.76903 71.2767 6.8497C71.4945 6.93037 71.8414 7.007 72.3173 7.0796C72.8497 7.16833 73.2853 7.26513 73.6241 7.37C73.9629 7.4668 74.2574 7.6483 74.5074 7.9145C74.7575 8.1807 74.8825 8.55177 74.8825 9.0277C74.8825 9.43103 74.7615 9.79 74.5195 10.1046C74.2775 10.4192 73.9226 10.6652 73.4547 10.8427C72.9949 11.0121 72.4464 11.0968 71.8091 11.0968Z" fill="#C6D2BE"/>
<path d="M53.4051 11.1935L55.0546 8.87424L55.1506 8.87546L56.8425 8.89689L56.8128 11.2367L58.7567 11.2613L58.8631 2.86201L55.2274 2.81594C54.4834 2.80652 53.8379 2.92235 53.2908 3.16344C52.7357 3.40443 52.3073 3.75103 52.0055 4.20324C51.7038 4.65545 51.549 5.19354 51.541 5.81749C51.5331 6.44144 51.6783 6.98332 51.9765 7.44313C52.2668 7.89485 52.6864 8.24419 53.2353 8.49116L51.3173 11.1671L53.4051 11.1935ZM53.5089 5.84242C53.5149 5.37045 53.6714 5.01241 53.9785 4.76828C54.2858 4.51615 54.7313 4.39379 55.3153 4.40118L56.8992 4.42125L56.8621 7.34902L55.2782 7.32895C54.6942 7.32155 54.2519 7.18794 53.9512 6.92811C53.6504 6.66828 53.503 6.30638 53.5089 5.84242Z" fill="#C6D2BE"/>
</svg>
